<svg xmlns="http://www.w3.org/2000/svg" width="1024" height="1024" viewBox="0 0 1024 1024">
  <defs>
    <filter id="glow-blue" x="-50%" y="-50%" width="200%" height="200%">
      <feGaussianBlur stdDeviation="10" result="b"/>
      <feMerge><feMergeNode in="b"/><feMergeNode in="SourceGraphic"/></feMerge>
    </filter>
    <filter id="glow-pink" x="-50%" y="-50%" width="200%" height="200%">
      <feGaussianBlur stdDeviation="14" result="b"/>
      <feMerge><feMergeNode in="b"/><feMergeNode in="SourceGraphic"/></feMerge>
    </filter>
    <linearGradient id="bgL" x1="0" x2="1" y1="0" y2="1">
      <stop offset="0" stop-color="#eaf1ff"/>
      <stop offset="1" stop-color="#f6f8fb"/>
    </linearGradient>
  </defs>

  <rect x="0" y="0" width="1024" height="1024" rx="220" fill="url(#bgL)"/>
  <rect x="84" y="84" width="856" height="856" rx="180" fill="none" stroke="#2b6cb0" stroke-width="10" filter="url(#glow-blue)"/>

  <path d="M840 200 c0-22-18-40-40-40h-140a40 40 0 0 0-40 40v0a40 40 0 0 0 40 40h60l40 60 40-60h40a40 40 0 0 0 40-40z"
        fill="#ff4dff" opacity="0.9" filter="url(#glow-pink)"/>

  <circle cx="512" cy="560" r="220" fill="#ffffff" stroke="#2b6cb0" stroke-width="12" filter="url(#glow-blue)"/>
  <path d="M420 560 l70 70 150-160" fill="none" stroke="#54c600" stroke-width="40" stroke-linecap="round" stroke-linejoin="round" filter="url(#glow-pink)"/>

  <g opacity="0.25" stroke="#2b6cb0">
    <line x1="300" y1="760" x2="724" y2="760" stroke-width="8"/>
    <line x1="300" y1="820" x2="640" y2="820" stroke-width="8"/>
  </g>
</svg>